<?xml version="1.0" encoding="UTF-8"?>
<svg width="700pt" height="700pt" version="1.1" viewBox="0 0 700 540" xmlns="http://www.w3.org/2000/svg">
 <g>
  <path d="m585.03 242.71c-2.5195-20.391-24.875-55.059-38.73-76.91-13.855-21.844-24.875-13.984-31.793-10.773-6.9258 3.207-48.805 27.668-83.754 50.109-33.305 21.375-52.461 43.902-60.738 52.543-4.375-4.2773-10.328-6.9648-16.895-6.9648h-6.2266c-6.5703 0-12.512 2.6875-16.891 6.9648-8.2812-8.6406-27.445-31.168-60.75-52.543-34.945-22.434-76.82-46.898-83.746-50.109-6.9258-3.207-17.949-11.07-31.801 10.773-13.848 21.852-36.203 56.52-38.73 76.91-2.5195 20.395-3.1484 37.297-3.1484 37.297s0.62891 16.895 3.1484 37.285c2.5195 20.391 24.875 55.066 38.723 76.906 13.855 21.855 24.875 13.984 31.801 10.781 6.9258-3.1992 48.797-27.676 83.746-50.102 33.297-21.371 52.461-43.898 60.742-52.543 4.375 4.2852 10.32 6.9727 16.891 6.9727h6.2383c6.5703 0 12.523-2.6875 16.895-6.9727 8.2812 8.6445 27.441 31.176 60.73 52.543 34.949 22.43 76.828 46.906 83.754 50.102 6.9219 3.2031 17.941 11.078 31.793-10.781 13.855-21.844 36.211-56.516 38.73-76.906 2.5156-20.391 3.1484-37.285 3.1484-37.285 0.003907-0.003906-0.625-16.898-3.1367-37.297z"/>
 </g>
</svg>
