<?xml version="1.0" encoding="UTF-8"?>
<svg width="700pt" height="700pt" version="1.1" viewBox="0 0 700 540" xmlns="http://www.w3.org/2000/svg">
 <path d="m536.67 256.67h-350l348.09-72.598c6.0742-1.2656 11.395-4.8945 14.785-10.094 3.3906-5.1953 4.5703-11.527 3.2852-17.594l-15.473-72.664c-2.5625-12.078-9.8086-22.645-20.148-29.387-10.344-6.7422-22.938-9.1055-35.02-6.5703l-319.83 66.605c-12.105 2.543-22.707 9.7852-29.48 20.133-6.7734 10.352-9.168 22.965-6.6562 35.078l13.785 66.148v230.94c0.015625 12.371 4.9375 24.23 13.688 32.98 8.7461 8.7461 20.609 13.668 32.98 13.684h326.66c12.371-0.015625 24.234-4.9375 32.98-13.684 8.75-8.75 13.672-20.609 13.688-32.98v-186.67c0-6.1875-2.457-12.125-6.8359-16.5-4.375-4.375-10.309-6.832-16.496-6.832zm-228.48-125.03 10.594 49.758-48.422 10.09-10.594-49.758zm94.125-19.602 10.594 49.75-48.422 10.086-10.59-49.75zm89.367-18.613 10.594 49.742-43.672 9.1016-10.59-49.746zm-309.41 116.41-10.367-49.809 42.16-8.7812 10.594 49.762zm284.4 233.49h-186.67c-8.3359 0-16.039-4.4453-20.207-11.664s-4.168-16.117 0-23.336 11.871-11.664 20.207-11.664h186.67c8.3359 0 16.039 4.4453 20.207 11.664s4.168 16.117 0 23.336-11.871 11.664-20.207 11.664zm0-70h-116.67c-8.3359 0-16.039-4.4453-20.207-11.664s-4.168-16.117 0-23.336 11.871-11.664 20.207-11.664h116.67c8.3359 0 16.039 4.4453 20.207 11.664s4.168 16.117 0 23.336-11.871 11.664-20.207 11.664z"/>
</svg>
