<?xml version="1.0" encoding="UTF-8"?>
<svg width="700pt" height="700pt" version="1.1" viewBox="0 0 700 540" xmlns="http://www.w3.org/2000/svg" xmlns:xlink="http://www.w3.org/1999/xlink">
 <g>
  <path d="m533.97 340.3c-8.3672 25.531-21.934 48.625-39.391 68.246 9.6445 18.402 17.691 38.039 23.547 58.879-25.676 22.98-56.066 40.758-88.984 51.684-15.164-15.398-28.301-32.059-39.453-49.539-12.824 2.6758-26.098 4.1055-39.703 4.1055-13.395 0-26.465-1.3672-39.098-3.9492-11.047 17.555-24.074 34.312-39.129 49.824-32.883-10.633-63.621-28.211-89.488-51.277 5.8359-20.996 13.906-40.73 23.598-59.227-17.457-19.492-31.047-42.461-39.504-67.844-20.836-0.8125-41.961-3.7969-63.035-9.1914-7.1016-33.906-7.1133-69.184-0.035156-103 20.973-5.3711 41.984-8.3906 62.73-9.2891 8.3672-25.531 21.934-48.641 39.391-68.258-9.6445-18.402-17.684-38.035-23.555-58.871 25.652-22.977 56.066-40.773 88.984-51.688 15.176 15.418 28.312 32.066 39.457 49.539 12.809-2.6602 26.066-4.0938 39.672-4.0938 13.41 0 26.48 1.3555 39.121 3.9492 11.047-17.566 24.074-34.316 39.121-49.844 32.891 10.645 63.629 28.234 89.48 51.297-5.8203 21-13.895 40.723-23.586 59.227 17.457 19.488 31.051 42.465 39.508 67.84 20.844 0.81641 41.977 3.8086 63.035 9.1992 7.1016 33.906 7.1133 69.176 0.035156 103-20.949 5.3555-41.973 8.3789-62.719 9.2812zm-183.97-134.04c-40.723 0-73.734 33.012-73.734 73.734 0 40.719 33.012 73.734 73.734 73.734 40.719 0 73.734-33.02 73.734-73.734 0-40.723-33.016-73.734-73.734-73.734z"/>
 </g>
</svg>
