<?xml version="1.0" encoding="UTF-8"?>
<svg width="700pt" height="700pt" version="1.1" viewBox="0 0 700 540" xmlns="http://www.w3.org/2000/svg">
 <g>
  <path d="m315.75 34.23c-135.52 0-245.72 110.16-245.72 245.68 0 135.52 110.2 245.86 245.72 245.86 135.52 0 245.82-110.33 245.82-245.86 0-135.52-110.3-245.68-245.82-245.68zm0 52.566c38.43 0 70 31.57 70 70s-31.57 69.898-70 69.898c-38.43 0-69.898-31.469-69.898-69.898s31.469-70 69.898-70zm-123.12 123.22c38.43 0 69.863 31.469 69.863 69.898 0 38.43-31.434 70.035-69.863 70.035-38.43 0-70.035-31.605-70.035-70.035 0-38.43 31.605-69.898 70.035-69.898zm246.33 0c38.43 0 69.898 31.469 69.898 69.898 0 38.43-31.469 70.035-69.898 70.035-38.43 0-70-31.605-70-70.035 0-38.43 31.57-69.898 70-69.898zm-123.22 123.11c38.43 0 70 31.605 70 70.035 0 38.43-31.57 69.898-70 69.898-38.43 0-69.898-31.469-69.898-69.898 0-38.43 31.469-70.035 69.898-70.035z"/>
  <path d="m313.63 490.74c-23.34 1.1211-21.66 36.129 1.6797 35.008h297.15c23.34 0 23.34-35.008 0-35.008h-297.15c-0.5625-0.027343-1.1211-0.027343-1.6797 0z"/>
 </g>
</svg>
