<?xml version="1.0" encoding="UTF-8"?>
<svg width="700pt" height="700pt" version="1.1" viewBox="0 0 700 540" xmlns="http://www.w3.org/2000/svg" xmlns:xlink="http://www.w3.org/1999/xlink">
 <g>
  <path d="m349.55 111.86c-58.242 0-106.08 45.914-106.08 102.7-0.039062 2.9961 1.125 5.8789 3.2305 8.0078 2.1055 2.1328 4.9727 3.332 7.9688 3.332s5.8633-1.1992 7.9688-3.332c2.1055-2.1289 3.2656-5.0117 3.2305-8.0078 0-44.234 37.121-80.305 83.684-80.305 23.234 0 46.598 9.4648 62.621 24.125 16.023 14.66 24.625 33.566 21.16 54.34v0.011719c-7.4805 45.184-27.801 52.727-51.102 67.031-11.648 7.1523-24.258 15.785-32.832 30.758-8.5742 14.973-12.527 35.227-10.285 64.223 0.19141 2.9883 1.5742 5.7734 3.8359 7.7344 2.2617 1.9648 5.2148 2.9375 8.2031 2.707 2.9844-0.23047 5.7539-1.6484 7.6875-3.9336 1.9336-2.2852 2.8711-5.2539 2.6016-8.2344-2.0234-26.223 1.6406-41.32 7.3906-51.367 5.7539-10.047 14.184-16.09 25.113-22.797 21.855-13.414 52.844-30.312 61.48-82.449v-0.011718c4.8398-29.062-7.7734-55.906-28.137-74.535-20.367-18.633-48.57-30-77.742-30z" fill-rule="evenodd"/>
  <path d="m350 405.19c-12.203 0-22.348 10.223-22.348 22.398 0 12.172 10.078 22.398 22.348 22.398s22.348-10.156 22.348-22.398c0-12.242-10.148-22.398-22.348-22.398z" fill-rule="evenodd"/>
  <path d="m350 32.566c-135.97 0-246.4 110.96-246.4 247.46 0 136.5 110.43 247.41 246.4 247.41s246.4-110.9 246.4-247.41-110.43-247.46-246.4-247.46zm0 22.398c123.81 0 224 100.61 224 225.07s-100.19 225.01-224 225.01-224-100.55-224-225.01c0-124.46 100.19-225.07 224-225.07z" fill-rule="evenodd"/>
 </g>
</svg>
